<?xml version="1.0" standalone="no"?>
<!DOCTYPE svg PUBLIC "-//W3C//DTD SVG 20010904//EN"
 "http://www.w3.org/TR/2001/REC-SVG-20010904/DTD/svg10.dtd">
<svg version="1.0" xmlns="http://www.w3.org/2000/svg"
 width="261.000000pt" height="261.000000pt" viewBox="0 0 261.000000 261.000000"
 preserveAspectRatio="xMidYMid meet">
<metadata>
Created by potrace 1.11, written by Peter Selinger 2001-2013
</metadata>
<g transform="translate(0.000000,261.000000) scale(0.100000,-0.100000)"
fill="#000000" stroke="none">
<path d="M8 2107 c-2 -7 -4 -372 -4 -812 l1 -800 1300 0 1300 0 0 810 0 810
-1297 2 c-1006 2 -1297 -1 -1300 -10z m326 -236 c6 -39 12 -84 21 -171 4 -30
8 -66 10 -80 2 -14 6 -52 10 -85 3 -33 8 -71 10 -85 2 -14 7 -52 10 -85 3 -33
8 -73 10 -90 2 -16 7 -52 10 -80 3 -27 8 -70 12 -95 9 -71 10 -82 13 -125 l2
-40 8 35 c5 19 12 67 15 105 3 39 8 77 10 85 2 8 7 49 10 90 3 41 8 82 10 90
3 13 8 54 20 175 2 17 6 53 10 80 3 28 10 84 15 125 19 153 22 175 25 181 4 6
132 5 139 -1 2 -3 -2 -47 -10 -98 -7 -51 -16 -114 -20 -140 -3 -26 -12 -87
-19 -137 -8 -49 -17 -114 -20 -144 -4 -30 -8 -62 -10 -71 -2 -9 -6 -41 -10
-70 -4 -29 -8 -60 -10 -69 -1 -9 -6 -41 -10 -71 -4 -30 -9 -62 -10 -71 -2 -9
-6 -40 -10 -69 -4 -29 -9 -62 -11 -74 -2 -12 -7 -41 -10 -66 -7 -62 -14 -102
-19 -110 -4 -7 -172 -7 -179 1 -3 2 -7 26 -11 53 -3 27 -8 59 -10 70 -3 12 -7
41 -9 66 -3 25 -12 92 -21 150 -19 129 -22 153 -30 210 -3 25 -10 74 -15 110
-5 36 -12 83 -15 105 -20 140 -25 175 -30 220 -4 28 -8 57 -10 65 -2 8 -7 40
-10 70 -4 30 -9 58 -11 62 -6 9 19 13 87 14 l58 1 5 -36z m876 -33 l0 -68
-125 0 -125 0 0 -195 0 -195 104 0 104 0 -1 -67 -2 -68 -102 0 -103 0 0 -202
0 -203 125 0 c123 0 125 0 126 -22 0 -13 1 -42 2 -66 1 -23 -2 -43 -8 -43 -5
-1 -96 -2 -202 -3 l-192 -1 0 595 c0 327 2 597 4 600 2 3 91 5 199 5 l196 0 0
-67z m441 49 c94 -41 131 -124 131 -295 0 -126 -13 -184 -53 -234 l-29 -37 25
-26 c53 -58 60 -99 60 -355 l0 -235 -70 0 -70 0 -5 235 c-6 230 -10 261 -38
289 -13 13 -95 23 -119 14 -10 -4 -13 -68 -12 -264 0 -143 -2 -263 -5 -267 -4
-6 -109 -8 -136 -3 -4 1 -5 1152 -1 1187 2 17 278 9 322 -9z m603 -7 c95 -46
123 -119 120 -319 -1 -124 -3 -132 -33 -187 -31 -57 -31 -58 -12 -78 49 -55
63 -116 62 -273 -2 -178 -36 -254 -131 -296 -37 -17 -69 -21 -176 -22 -72 -1
-138 1 -145 4 -12 5 -14 103 -14 596 0 325 3 592 7 595 4 3 67 5 141 4 118 -1
141 -4 181 -24z"/>
<path d="M1470 1575 l0 -195 54 0 c105 0 120 42 107 318 -1 13 -12 34 -26 47
-20 21 -34 25 -79 25 l-55 0 -1 -195z"/>
<path d="M2070 1575 l0 -195 50 0 c40 0 56 5 75 24 31 31 37 67 33 204 -3 111
-4 114 -31 138 -22 18 -40 24 -78 24 l-49 0 0 -195z"/>
<path d="M2070 1044 l0 -204 59 0 c94 0 113 30 116 190 1 108 -13 177 -41 201
-8 6 -41 13 -74 14 l-60 2 0 -203z"/>
</g>
</svg>
