<?xml version="1.0" encoding="utf-8"?>
<!-- Generator: Adobe Illustrator 21.1.0, SVG Export Plug-In . SVG Version: 6.00 Build 0)  -->
<svg version="1.1" id="Layer_1" xmlns="http://www.w3.org/2000/svg" xmlns:xlink="http://www.w3.org/1999/xlink" x="0px" y="0px"
	 viewBox="0 0 250 250" style="enable-background:new 0 0 250 250;" xml:space="preserve">
<style type="text/css">
	.st0{fill:#EDEDED;stroke:#222326;stroke-width:4;stroke-miterlimit:10;}
	.st1{fill:#3DB245;stroke:#222326;stroke-width:4;stroke-miterlimit:10;}
	.st2{fill:#AB8343;stroke:#222326;stroke-width:4;stroke-miterlimit:10;}
	.st3{fill:none;stroke:#222326;stroke-width:4;stroke-miterlimit:10;}
	.st4{fill:#3D4E85;stroke:#222326;stroke-width:4;stroke-miterlimit:10;}
	.st5{fill:#CCCCCC;stroke:#222326;stroke-width:4;stroke-miterlimit:10;}
	.st6{fill:#9D1E1E;stroke:#222326;stroke-width:4;stroke-miterlimit:10;}
	.st7{fill:#B866D4;stroke:#222326;stroke-width:4;stroke-miterlimit:10;}
	.st8{fill:#D3AAE0;stroke:#222326;stroke-width:4;stroke-miterlimit:10;}
	.st9{fill:#3D3D3D;stroke:#222326;stroke-width:4;stroke-miterlimit:10;}
</style>
<g id="pre">
	<polygon class="st0" points="224,191.1 172.1,191.1 168.1,198 168.1,236.7 173.3,241.1 223.2,241.1 228.1,236.7 228.1,198 	"/>
	<rect x="170.1" y="178.5" class="st1" width="56" height="12.6"/>
</g>
<g id="iced-coffee">
	<polygon class="st2" points="41.1,144.3 46.6,223.7 85.2,223.7 90.7,144.3 	"/>
	<rect x="38.6" y="139.3" class="st2" width="54.6" height="9.2"/>
	<polygon class="st2" points="47,241.1 46.6,223.7 85.2,223.7 84.8,241.1 	"/>
	<line class="st3" x1="65.9" y1="139.3" x2="65.9" y2="108.9"/>
</g>
<g id="bull">
	<polygon class="st4" points="147.6,153.3 143.3,146.3 143.3,144.5 143.9,144.3 143.9,143 111.3,143 111.3,144.8 112,145 112,146.3 
		107.7,153.3 107.7,237.6 110.9,241.1 144.3,241.1 147.6,237.6 	"/>
</g>
<g id="coffee">
	<polygon class="st0" points="73.3,169.9 78.8,241.1 113.4,241.1 118.9,169.9 	"/>
	<rect x="70.8" y="163.9" class="st0" width="50.6" height="9"/>
</g>
<g id="soda">
	<path class="st5" d="M175.5,167.1c-0.3-0.5-0.4-1-0.4-1.5h0.4v-2h-33.9v2h0.4c0,0.5-0.1,1-0.4,1.5l-4,7v62.6l5.2,4.4h31.9l4.8-4.4
		V174L175.5,167.1z"/>
</g>
<g id="five-hour">
	<path class="st6" d="M50.5,201.6c-1.3-1.2-2-2.9-2-4.7v-8.7H35.2v8.7c0,1.8-0.7,3.4-2,4.7c-1.9,1.8-2.9,4.3-2.9,6.9v32.6h23.2
		v-32.6C53.4,205.9,52.3,203.4,50.5,201.6z"/>
</g>
<g id="five-hour-2">
	<path class="st7" d="M27.3,201.6c-1.3-1.2-2-2.9-2-4.7v-8.7H12v8.7c0,1.8-0.7,3.4-2,4.7c-1.9,1.8-2.9,4.3-2.9,6.9v32.6h23.2v-32.6
		C30.2,205.9,29.1,203.4,27.3,201.6z"/>
</g>
<g id="pills">
	<path class="st8" d="M237.9,231.3h-13c-2.7,0-4.9,2.2-4.9,4.9l0,0c0,2.7,2.2,4.9,4.9,4.9h13c2.7,0,4.9-2.2,4.9-4.9l0,0
		C242.8,233.5,240.6,231.3,237.9,231.3z"/>
	<line class="st3" x1="232.8" y1="231.3" x2="232.8" y2="241.1"/>
</g>
<g id="five-hour-extra">
	<path class="st9" d="M128.3,238.2c1.2-1.3,2.9-2,4.7-2h8.7v-13.3H133c-1.8,0-3.4-0.7-4.7-2c-1.8-1.9-4.3-2.9-6.9-2.9H90.8v23.2
		h30.6C124,241.1,126.5,240,128.3,238.2z"/>
</g>
<g id="scoop">
	<polygon class="st0" points="195,225 168,225 168,236.6 172.4,241 190.6,241 195,236.6 	"/>
	<line class="st3" x1="168" y1="216" x2="214" y2="216"/>
	<rect x="168" y="216" class="st0" width="27" height="9"/>
</g>
</svg>
