<svg xmlns="http://www.w3.org/2000/svg" viewBox="0 0 639.91 270.77">
	<title>bad_energy</title>
	<path class="text-color-fill" d="M593.38,253.27a28.72,28.72,0,0,0,3.91,1.09c5.45.6,8.72,4,10.5,8.74a9,9,0,0,1-.31,6.09c-1,2.23-3.33,1.6-5.32,1.08-5.6-1.48-11.18-3-16.82-4.39-5.8-1.38-11.79-2.14-17.46-3.91s-10.91-4.3-12.42-11a5.84,5.84,0,0,1,1.36-5.5c3.62-4.34,7.07-8.82,10.61-13.22a37.66,37.66,0,0,0,7.75-17.6,21.62,21.62,0,0,1,1.24-3.56c6-2.26,9.16,1.73,12.1,5.1,2.63,3,1.92,6.84.26,10.36s-3.35,7.16-5.55,11.88c2.24-.43,3.62-.31,4.45-.92,9.49-7,19.91-12.64,28.79-20.6,7.77-7,11-15.82,12.24-25.48A58.88,58.88,0,0,0,625.33,162a52.49,52.49,0,0,0-10.05-15.92c-1.78-2-3.6-3.93-5.21-6s-1.78-4.56,1.06-7.08c1.53.74,3.51,1.25,4.9,2.45a65.73,65.73,0,0,1,21.31,34.07c4.29,16.22,3.26,31.71-3.54,46.72-2.2,4.85-5.88,9.3-9.73,13.08a85.53,85.53,0,0,1-20.87,15.27,52.34,52.34,0,0,0-7.86,5.25C594.48,250.43,594.17,251.8,593.38,253.27ZM194.24,55.18a32.32,32.32,0,0,0-28.59-6.52c-6.83,1.55-12.11,6-16.76,11.1-4,4.43-3.65,9.48-3.05,15,.72,6.63,4.24,11,9.27,14.59,12,8.46,33.8,4.89,43.07-4.66,1-1,2.47-1.68,4.19-2.81,1.6,5.86,2.1,11.31,6,15.13,8.54.85,11.78-3.29,9-11a43.32,43.32,0,0,1-2.51-9.09c-2.48-19.11-4.75-38.25-7.15-57.37a83.35,83.35,0,0,0-1.93-11.29c-1-3.77-3.09-7-7.19-8.28-4.5,1.28-5.38,4.91-5.24,8.65.21,5.64.87,11.27,1.56,16.87,1.13,9.23,2.49,18.44,3.59,27.67.14,1.19-.67,2.5-1.18,4.22C195.81,56.33,195,55.79,194.24,55.18Zm-9.61,10.3c3.31,1,3.85,4,4,6.79s-1.6,4.59-4.25,6c-7.74,4.16-15.09,2.54-22.39-.87-2.73-1.28-3.36-4.72-1-7.15,3.67-3.71,7.35-7.88,13.7-7.61C178.05,63.58,181.36,64.46,184.63,65.48ZM19.14,12.58c-2.82,7.75-3.87,15.86-4.22,24-.7,16.33-1.23,32.66-1.81,49-.07,2.1-.28,4.09-2.75,5.48-.89-.94-1.81-2-2.79-2.91C5.2,85.83,3,86,1.52,88.87a11.53,11.53,0,0,0-.07,11.3c1.9,3.53,4.95,4.41,8.72,4.3a14.75,14.75,0,0,1,6.42,1c3,1.37,5.08.59,7.17-1.51a23,23,0,0,1,9.7-5.52,77.57,77.57,0,0,0,14.34-5.84c5.54-3.09,9.92-7.39,11.83-14,1.41-4.87.37-9.34-.54-13.93-1.87-9.43-6-17.43-14.54-22.64-5-3-9.24-2.48-13,1.91-1.12,1.31-1.95,2.86-3.06,4.18a21.74,21.74,0,0,1-2.72,2.31c-.54-1-1-1.36-.94-1.73.3-4.22.49-8.47,1.08-12.66.91-6.52,2.15-13,3.14-19.51.71-4.66-1.54-8-4.79-10.8C20.66,7,20.07,10,19.14,12.58ZM39.85,53.73c.76.39,2.07.63,2.55,1.39,3.28,5.17,6.71,10.46,5.43,17a13.65,13.65,0,0,1-3.55,6.87,34.46,34.46,0,0,1-17,8.86C25.5,75.88,31.85,58.87,39.85,53.73Zm434.75,52.8c-7.94,7.4-5.09,17,3.5,22.6s18,4.39,26.72.21c15.32-7.35,14.33-11.77,16.9-27.86,2-12.68.53-10.48.65-23.32a45,45,0,0,1,1.73-11.3C526.23,59,520,50.52,511.77,50.29c-6.17-.17-11.91.92-17.12,4.4-5.94,4-9.85,9-10.39,16.55-.75,10.48,11,23,21.82,23.07a28.55,28.55,0,0,1,3.73.54,27.39,27.39,0,0,1,.38,5c-.64,5.93.79-3.11-.27,2.75-2.4,13.35-2.79,12.93-15,17.7-4.66,1.82-10,2.83-14.12-1.07-1.62-4.83,2.92-11.32-4.68-13.45A6.6,6.6,0,0,0,474.6,106.53Zm22.22-31.8c1.19-5.52,5.17-8.85,11.23-9.41,2.07,5.39-1.31,12.62-7.44,15.86C496.7,78.95,496.13,78,496.82,74.74ZM570.2,94.8c.36,11.56-1.49,18.79-15.22,25.56-4.15,2-13.83-.65-19-2.81-2.81-1.18-6,3.2-8,5.67-1.49,1.93-.91,5.75,1.11,8.41,1.73,2.29,4.13,2.57,6.73,1.95,1.13-.27,2.27-.56,3.37-.94,6.29-2.17,17.49,1.36,23.23-2,7.77-4.53,19.64-14.55,19.64-44.74,0-5-.08-10,0-15A41.57,41.57,0,0,1,583,63.5c1.19-5.74-.6-10.48-5.44-13.71-3.86-2.58-6.86-1.31-7.42,3.25-.4,3.3-.59,6.63-.85,9.95-.67,8.58-5.8,15.44-13.52,18-3.25-1.33-4.59-3.94-5.14-7.31-.82-5,1.49-9.06,3.34-13.32,1.73-4,.68-7.34-2.87-9.37-2.77-1.58-6.26-.5-8.44,3.09a28.24,28.24,0,0,0-4.21,17.63c.24,2.39,1.71,4.63,2.45,7a19.67,19.67,0,0,0,11.78,12.78c4.68,1.89,9.88,3.25,14.62-.58.43-.35,1.24-.24,2.55-.45C570,92.08,570.16,93.44,570.2,94.8ZM125.78,76.64c-3.79-3.53-4.72-8.25-5.62-13.1a54.47,54.47,0,0,0-3.29-11.2c-1.36-3.21-2.62-3.33-6.08-2.63-1.62.33-3.53.7-5,.15-8-3.07-15.44-1.64-23.12,1.68C71.47,56.38,64.53,72.65,67.44,85.07a21.14,21.14,0,0,0,4.27,8.75c7,8.11,22.06,9,30.41,2,4-3.31,8-6.61,10.4-11.43.49-1,1.61-1.68,2.79-2.87,1.27,1.39,2.15,2.41,3.1,3.37,1.74,1.79,3.27,3.95,5.33,5.24,4,2.48,8.26,4.5,12.45,6.64,2.16,1.1,4.4,1.82,6.61,0,2.39-2,2.78-4.54,2-7.27a32.33,32.33,0,0,0-6.62-12.35c-1.45-1.7-3.14-2.59-5.66-1.64l-2.88,3.92A42.34,42.34,0,0,1,125.78,76.64ZM90,87.32c-1.81.8-4.38.38-6.47-.06-3.16-.68-5-3-4.48-5.7,1.53-7.57,4.34-14.43,12-18,4.17-1.93,6.14-2.1,11.61-.74C106,76.87,101.5,82.19,90,87.32Zm192.18-4c1.54-.74,3.05-1.54,4.62-2.22,5.79-2.49,11.82-4.49,16.41-9.16,4.27-4.34,5.37-9.79,2.45-15.06a60.2,60.2,0,0,0-6.42-9.49c-5.74-6.84-16.57-8.14-23.32-3.12-9.56,7.1-14.33,16.88-15.54,28.45A11.34,11.34,0,0,0,262,79.82a56.23,56.23,0,0,0,8.3,9.12c8.93,8.23,19.39,11.83,31.53,9.5a19.13,19.13,0,0,0,12.64-8.9c2.15-3.35,2-7.16.29-10.76-3.29-.79-5.26,1.34-7.56,2.5-3.7,1.86-7.32,3.95-11.17,5.43-4.81,1.86-9.18-.47-13.65-1.56ZM282.06,57a21.38,21.38,0,0,1,4.5-3.11c2.89-1.76,5.82-1.18,7.93,1.49,1.89,2.39,1.53,4.88-1.1,7.44-4.24,4.12-9.83,5.4-15.18,7.12-.79.25-1.83-.3-2.93-.51C275.15,63.78,278.79,60.45,282.06,57ZM408.13,80.93c1.36-.93,3.09-1.34,4.4-2.32,5.22-3.88,10.53-7.71,11-15.14.55-8.59-8.67-21-19.39-21.13-8.35-.1-14.1,4.17-19.34,9.77-9,9.59-6.85,25.22.64,32.77,6.22,6.28,12.84,11.94,22,13.81,5.89,1.21,11.48,1.54,16.88-1.56,5.83-3.34,7.55-13,2.76-17.8-6.66,5.37-13.14,12.63-23.87,5.73C405.19,83.37,406.56,82,408.13,80.93Zm-1.24-26.58,6.18,2.58c-.31,1.55-.1,3.39-.91,4.14-5.61,5.18-11.43,10.15-20.07,10.06C391.06,64.28,396.74,58,406.89,54.35Zm-48.63,9c.35,4,.49,8,.84,11.94.73,8.26,3.07,16,8.17,22.64,2,2.64,4.45,3.16,6.55,1.87,2.44-1.5,2.27-3.79,1.73-6.2s-.88-4.86-1.46-7.25a8,8,0,0,0-1.47-3.56c-2-2.15-2.3-4.66-2.4-7.38-.2-5.32-.16-10.69-1-15.92a26.06,26.06,0,0,0-3.84-10c-3.05-4.61-7.54-5.3-12.2-2.36a21.83,21.83,0,0,0-6.34,5.52c-2.92,4.17-6.93,7.67-8.34,12.87-.29,1.06-1.56,1.85-3.16,3.65a40.17,40.17,0,0,1-1.36-5c-.34-2.81-.57-5.63-.66-8.45-.14-4.31-2.23-7.69-5.2-10.44-1.13-1-3.43-1.83-4.76-1.4a6,6,0,0,0-3.18,3.9,13.37,13.37,0,0,0,.22,6.4c3.16,11.53,6.51,23,9.85,34.48a27.08,27.08,0,0,0,1.7,3.61c1.34,2.89,3.77,3.42,6.65,3.29s4-2,4.69-4.39c1.17-4.16,2.15-8.39,3.51-12.49q2.57-7.77,5.66-15.37c.73-1.8,2-3.55,4.91-2.94A14.82,14.82,0,0,1,358.26,63.33ZM438.61,77.9a57.93,57.93,0,0,1,9.15,17c1.71,4.88,4.77,6.59,10.73,6.08,2.38-3.23,1.77-6.83.44-10.28-1.25-3.25-3.26-6.22-4.34-9.51a39.31,39.31,0,0,1-2.4-11.54,9,9,0,0,1,3.47-6.68A38.73,38.73,0,0,1,468,57.86c6.31-1.34,12.82-1.72,19.26-2.45,2.34-.27,4.33-1,4.57-3.67a5,5,0,0,0-3.36-5.53,11.93,11.93,0,0,0-3.88-.73c-4.66-.11-9.36-.5-14,0a121.4,121.4,0,0,0-18.63,3.12c-5.48,1.44-9.9,4.74-11.19,10.91A13.55,13.55,0,0,1,439.66,62l-5.09,1.12C433.41,69.05,435.44,73.88,438.61,77.9Z"/>
</svg>