<svg xmlns="http://www.w3.org/2000/svg" viewBox="0 0 90 60"><defs><style>.cls-1{fill:#1a1309;}.cls-2{fill:none;}</style></defs><title>verb_logo_one-color</title><g id="Layer_2" data-name="Layer 2"><g id="Art"><g id="Verb_Wordmark_Black" data-name="Verb Wordmark Black"><path id="wordmark_black" class="cls-1" d="M68.61,27.65h-2V15.74h1.92c1.7,0,2.53,1.11,2.53,3.39V24C71.09,26.36,70.21,27.65,68.61,27.65Zm2.94,12.46v-4c0-2.09-.67-4.2-2.18-4.2H66.63V44.26h2.58C70.93,44.26,71.54,42,71.54,40.11ZM82.49,5.48h.8V8h.53V5.48h.81V5H82.49ZM7,5H82V55H7ZM62.32,48.5h6.9c4.36,0,6.67-3,6.67-8.59V36.45c0-3.43-.85-5.69-2.59-6.89,1.44-1.34,2.13-3.27,2.13-5.9V19.53c0-5.26-2.38-8-6.87-8H62.32ZM45,48.5h4.34V31.89h2.53c1.51,0,2.18,2.11,2.18,4.2V48.5h4.34V36.45c0-3.43-.85-5.69-2.59-6.89a7.79,7.79,0,0,0,2.45-5.9V19.53c0-5.26-2.38-8-6.87-8H45Zm-14.8,0H41.87V44.26H34.59V31.89h6V27.65h-6V15.74h7.28V11.5H30.25Zm-18.13-37,4.9,37h5.41l4.92-36.83,0-.17H23L19.72,41.4,16.46,11.5ZM87.44,5l-.89,1.71L85.68,5h-.54V8h.54V6l.63,1.26h.5L87.44,6V8H88V5ZM54,24V19.13c0-2.28-.83-3.39-2.53-3.39h-2V27.65h2.09C53.08,27.65,54,26.36,54,24Z"/><rect class="cls-2" width="90" height="60"/></g></g></g></svg>