<svg xmlns="http://www.w3.org/2000/svg" viewBox="0 0 944.88 255.26"><title>2better_energy</title><g id="Layer_2" data-name="Layer 2"><g id="Layer_1-2" data-name="Layer 1"><path d="M813,78.84c-6.07,2.39-11.22-.79-16.26-3.76a12.61,12.61,0,0,1-5.64-8.46c-.73-3.33-1.77-6.7.74-10,.75-1,.44-2.77.58-3.91-.67-.55-.88-.88-1.13-.91-8.41-.93-16,1.06-21.27,7.87-2.07,2.68-2.39,6.72-3.45,10.16-1.1,3.59-1.77,7.37-3.33,10.75-1,2.15-3.26,3.71-5.08,5.67-4.15-2.32-6.49-5-6.91-9.38-.54-5.58.77-10.69,2.9-15.8a54.84,54.84,0,0,0,2.61-10c.67-3.21,1.39-3.93,4.6-4.6a29.73,29.73,0,0,0,6.36-2c6-2.76,12.36-3.82,18.8-4.48,3.09-.32,4.53.82,7.93,4.72L794.8,50c1.25-.91,2.09-1.42,2.81-2.06,6.24-5.49,13-9.22,21.76-7,.87.22,1.78.3,2.68.44,7.43,1.19,9.81,4.88,8.6,12.44-1.07,6.69-1.5,13.48-2.52,20.17-2.06,13.54,3.5,8.73-3.41,20.94a75.22,75.22,0,0,1-9.56,13.66,28.49,28.49,0,0,1-10.29,7c-2.46,1-5.88,0-8.73-.61-2.28-.53-4.35-2-6.53-3-5.57-2.52-9.31-6.57-10.55-12.66a9.21,9.21,0,0,1-.1-3.58c.42-2,1.6-3.74,3.87-3.8,2-.05,2.66,1.54,3.25,3.22a13.06,13.06,0,0,0,20.84,5.63c2.91-2.53,7.7-8.17,8.47-17.92C815.53,81,815.24,79.6,813,78.84Zm2-25.33c-4.33,1.7-8.25,4-11.1,7.84-1.09,1.47-2.17,3.11-.55,4.86s3.45,1.58,5.4.7a15.57,15.57,0,0,0,7.45-7.57C817.15,57.41,817.35,55.28,815,53.5Zm80.26,148.18c.52-6.47-.86-12.32-6-16.64-1.38-1.16-3.83-2.5-5.08-2-1.62.66-2.92,2.92-3.64,4.77-.55,1.41-.06,3.27.12,4.91.25,2.31.91,4.61.93,6.92.09,14.59-6,26.36-16.93,35.71-4.12,3.51-4.84,7.47-1.92,11.73,1.83,2.67,4.4,3.34,7.41,3.12,5.63-.4,11.26-1.1,16.89-1.07,6.4,0,12.92-.41,19,2.51a102.42,102.42,0,0,0,10,3.62c5-5.65,4.83-8.87-.33-12.9a11.56,11.56,0,0,0-4.31-2.3c-4.84-1.09-9.73-1.93-14.63-2.75-2.83-.47-5.7-.71-9.15-1.13,2.23-3.78,5.33-5.1,8.12-6.6,7.44-4,15.26-7.4,22.45-11.82,6.46-4,13.26-7.7,18.13-13.88,7.3-9.26,10.49-19.35,7.48-31.18a102.9,102.9,0,0,0-12-27.83c-6.52-10.82-12.9-21.72-19.3-32.61-1.34-2.28-2.4-4.73-3.77-7a28.2,28.2,0,0,0-3.55-4.74c-2-2.12-4.58-2.91-7.28-1.62s-3.39,3.94-3.1,6.78a22.61,22.61,0,0,0,4.88,11.8c7.52,9.68,15,19.42,20.93,30.2,3.61,6.56,7.41,13.06,10.43,19.89,3.67,8.29,3.36,16.65-2.5,24a48.16,48.16,0,0,1-8.52,8.32,182,182,0,0,1-15.28,10.3c-3.14,1.91-6.65,3.2-10.52,5C894.59,210.21,894.91,205.94,895.26,201.68ZM447.19,49.54c-1.7,3.79-3.69,7.44-5.53,11.16s-3.71,7.44-5.47,11.2A12.29,12.29,0,0,0,435,80.57c.78,3,1.9,5.38,5.1,6,2.51.51,5.09-1.59,6.67-5.06,4.54-10,8.94-20,13.72-29.92,1.9-3.93,3.46-8.14,7.85-10.58,3.17-1.77,3.89-5.37,2.35-8.82a12,12,0,0,1-.63-7.77c.48-2.28.85-4.59,1.24-6.89a7.88,7.88,0,0,0-2-6.93c-1.76-1.92-3.72-3.35-6.56-2.72-2.59.57-3.16,2.63-3.74,4.79-1.07,4-2.09,8.06-3.41,12-.55,1.65-1.53,4-2.82,4.4-5,1.53-10.17,2.59-15.39,1.81-1.28-3.48.44-6,1.21-8.61,1.33-4.57-.28-7.73-5.15-9.78-3.33-1.4-5.05-.37-7.37,4.5a20.28,20.28,0,0,0-1,2.81c-1,3.18-1.62,6.51-3,9.53-.87,2-2.66,4.92-4.16,5-4.94.24-9.52,3.16-14.74,1.56-3.24-1-5.34.89-6,4.23a8.4,8.4,0,0,0,8.23,10.44c1.5,0,3-.21,4.49-.06s4,.26,4.33,1.06c.54,1.41,0,3.45-.56,5-2.12,5.56-4.69,10.95-6.66,16.55-1.78,5.07.46,9.56,5.57,12.34,4.58-.37,5.61-4,6.87-7.49,2.55-7,5.16-14,7.68-21.07a20.3,20.3,0,0,0,1.57-5.7c.15-3.36,1.95-4.8,4.92-5.21,4.43-.61,8.88-1.12,14.53-1.82C447.74,46.51,447.8,48.17,447.19,49.54ZM60.76,79c1.63-3.25,3.87-18.09,10.86-20.23,2.43-.74,6.13,1.66,6.87,3.44.81,1.95-.7,7.63-.79,8.41-.2,1.81-.51,3.62-.81,5.42-.41,2.46-1.08,2.9-1.21,5.37-.17,3.11,2.86,7.23,5.41,7.65a5.54,5.54,0,0,0,6.12-3.36c1.51-3.43,2.56-5.13,3.28-8.82,1-5.36,1.44-10.85,2.44-16.23,1.51-8.1-4.9-11.93-11.64-16.6-3.17-2.19-3.26-2.9-1.92-6.65a96.11,96.11,0,0,0,6-27.68c.3-6-3.29-9.57-10-9.72-3.71,4-3.94,9.56-5.39,14.57-2.53,8.76-4,17.9-7.29,26.34C58.79,50.77,53.43,60,48.76,69.59a61.36,61.36,0,0,0-3.5,8.94,6.46,6.46,0,0,0,.61,4.66c1.88,2.62,2.32,3.58,5.53,4.24C57.69,88.7,58.74,83,60.76,79ZM17.54,48.26l-7.87-.42c-5.52-.29-7.8-2.08-9.25-7.3-1.34-4.8.51-6.71,5.46-6.69,5.62,0,11.25-.48,16.86-1a7.13,7.13,0,0,0,6.54-5.34c1.61-5.05,3.11-10.15,5-15.11.76-2,1.9-4.49,3.61-5.52,2.41-1.46,4.55.62,6.58,2.21a8,8,0,0,1,3,9.26A99.18,99.18,0,0,0,44.78,29a13.45,13.45,0,0,0,.7,6.19c1.27,3.76.61,6.7-3.09,8.18-4.36,1.75-6.93,4.95-9.08,8.82-1.82,3.29-3.79,6.49-6.19,10.56l11.54-.16c.07,2.25.72,4.15.05,5.3-2,3.56-4.19,7.25-7.05,10.13-3.84,3.87-8.4,7-12.65,10.51-5.31,4.34-12.9,3.19-14.9-3a18,18,0,0,1,.72-11.59c2.75-6.53,6.65-12.58,10.24-18.73C16.3,53,18.24,51.3,17.54,48.26ZM613.95,71.92c3,3.85,6.78,3.77,10.58,2.4,5.05-1.83,10.24-3.23,14.86-7.16,3.32-2.83,6-2.9,7.25-1.41s.72,4.86-1.4,7.7c-6.52,8.74-14.63,13.72-24.55,13.71a87.26,87.26,0,0,1-13.7-1c-7.78-1.25-9-9.08-9-16.6,0-6.18,2.33-11.38,6.64-16.73,5-6.16,6.8-11,14-14,.82-.34,1.68-.54,2.47-1,12.56-6.51,21.54,5.48,20.45,13.91-.7,5.43-4,10-9.16,13.13-3.19,1.92-6.8,2.95-10.24,4.25C619.73,70.12,617.27,70.83,613.95,71.92ZM615.69,57c5.91,1.66,10.29-.32,13.91-6.27C625,48.62,620.52,50.66,615.69,57Zm57.6-12.46c1.3-3.94-1-6.06-3.78-8-3.68-2.61-7-1.88-8.39,2.36-1.62,4.9-2.6,10-4,15-1.86,6.49-3.24,13.12-6.43,19.2a11.1,11.1,0,0,0-.1,9.88A7.21,7.21,0,0,0,657,87.34c3.12.22,4.7-1.45,6.13-3.85A117.64,117.64,0,0,1,670,72.91c4.59-6.08,9.42-12,14.21-17.91,1.28-1.58,2.62-3.42,5.39-1.9-1.14,8.45-2.44,16.68-5.59,24.6-2.74,6.88.09,11.12,7.57,12.2a12.44,12.44,0,0,0,5.17-7.81c1.29-6.84,3.22-13.55,4.47-20.4a83.25,83.25,0,0,0,1.1-13c.13-6.07-4.18-9.24-8.79-11.78a6.07,6.07,0,0,0-5,.33A109.31,109.31,0,0,0,678.57,44c-1.38,1-2.6,2.23-4.77,4.11C673.48,46,673.07,45.18,673.29,44.53ZM722.47,59.3c5.87-.83,7.5-2,10.61-5.32,1.36-1.47,1.62-3.65-1-5.37C727.28,51.47,723.67,51.75,722.47,59.3Zm-3.85,11.55c1,2.67,1.24,6,7,6,3.48-.37,8.28-1.43,10.23-5.12.82-1.56,3.52-2.82,5.28-2.79,7.19.14,7,4.21,4.92,8.5C743.82,82,735.92,91,725.54,91c-11.27-2.18-16.62-10-19.64-20a16.16,16.16,0,0,1,1.84-13.07A185.92,185.92,0,0,1,718.8,42.45c3-4,7.58-5.74,12-7.68,2.43-1.07,4.58-.32,6.62.9,8.24,4.93,10.59,11.57,7.69,20.56-.71,2.2-.83,4.78-2.42,6.67C738.63,67.7,722.76,69.53,718.61,70.85Zm-457.67-.31c-1.28.71-2.48,1.8-3.84,2a91.07,91.07,0,0,1-10.79,1.26c-2.3.13-4.44.33-5.45,2.66-2.26,5.21,1.27,13.28,7.69,12.46,8.72-1.11,16.86-3.46,24-8.85,5.58-4.22,7.08-13.22,1.08-18.21-3.27-2.72-7.07-4.81-10.63-7.19-.89-.6-1.76-1.23-3.23-2.25a42.3,42.3,0,0,0,4.68-3.62c1.1-1.14,2.47-2.58,2.6-4,.38-4.16-2.69-6.54-5.52-8.91-2.49-2.09-4.71-.63-6.85.66-4,2.38-7.88,4.85-11.82,7.27-8.46,5.2-9,6.6-6,16.23,2.52,2.79,6,3.14,9.46,3.78,4.21.77,8.33,2.08,12.46,3.25a22.49,22.49,0,0,1,3.15,1.42ZM130.8,92.26c-4.74-3.13-5.67-5.54-4.39-10.75.63-2.59,2.72-3.14,4.74-3.86,3.58-1.27,7.26-2.32,10.73-3.83,1.3-.57,2.14-2.17,3.19-3.3a19.23,19.23,0,0,0-3.52-3,23.68,23.68,0,0,0-5.21-1.6,10.88,10.88,0,0,1-8.29-11.36c.21-2.78,1.63-4.49,3.78-6q7-5.11,13.83-10.56c3.19-2.57,5.09-3,7.51-1.29,3.61,2.61,5.56,6.78,4.27,9.79A23.32,23.32,0,0,1,154.51,51c-1.17,1.57-2.49,3-4.09,4.95,1.33,1.54,2.39,3,3.64,4.16a22.23,22.23,0,0,1,6.67,12c1.05,5.49-.51,8.9-5.36,11.64-3.18,1.79-6.34,3.63-9.64,5.18a28.21,28.21,0,0,1-6.14,1.85C136.85,91.39,134.06,91.74,130.8,92.26Zm432.52-56a9.7,9.7,0,0,0-4.09-1.62c-4.77-.56-9.57-.82-14.35-1.31-5.28-.54-9.42,2-12.84,5.39-3.85,3.77-7.75,7.82-7.32,14a9.71,9.71,0,0,1-.71,2.89c-2.11,8-4.27,16-6.33,24-1.41,5.5,1.3,9.1,7.85,9.82a11,11,0,0,0,1.46-2c2.06-4.51,4.4-8.94,5.94-13.62,2-6.1,5.7-11.71,5.57-18.47a5.59,5.59,0,0,1,1.13-2.71c3.32-5.28,9.52-7.21,15.71-5.32A74.08,74.08,0,0,0,564.22,49C569.09,42.65,568.75,39.95,563.32,36.28ZM216.22,48.53c-2.83,8.13-6,16.14-8.87,24.27a21.68,21.68,0,0,0-1.11,7.27c0,2.9,2.83,5.9,5.35,6.53,3.18.8,4.46-1.54,5.84-3.58a18.3,18.3,0,0,0,2.11-3.91c2.68-7.31,5.21-14.67,7.89-22,2-5.53,1.44-10.53-5.15-14C218.9,43.68,217.26,45.54,216.22,48.53Zm-94.12,4A65.9,65.9,0,0,0,119.66,45a5.42,5.42,0,0,0-5.6-3.42c-2.37.24-3.8,1.85-4.5,4.12-.78,2.54-1.53,5.1-2.44,7.59-2.1,5.75-4.35,18.46-6.43,24.22a13.67,13.67,0,0,0-1,4.8c.07,2.78,1.1,5.25,4,6.32a5.44,5.44,0,0,0,7.21-2.89c3.84-8.07,7.13-23.4,10.61-31.64a4.66,4.66,0,0,0,.1-1.49Zm3.29-27a83.07,83.07,0,0,0-12.87-6.2c-2-.8-3.95.59-4.56,2.82-1.07,3.89.27,7.23,2.87,10.09a7.25,7.25,0,0,0,8.56,2.17c2.16-.81,4.42-1.35,6.71-2C127.48,29.44,127.53,26.76,125.39,25.46Zm91.72,3.86c1.16,2.64,5.14,5.09,7.59,4.92,2.65-.19,6.47-3,7.24-5.52,1-3.2-.76-5.5-2.9-7.46a26.5,26.5,0,0,0-5.2-3.83c-3.4-1.84-5.77-.87-7.08,2.7a39.55,39.55,0,0,0-1.08,4.41A38.27,38.27,0,0,0,217.11,29.32Zm617.83,84.25a25.76,25.76,0,0,0,9.44,4.8c10.8,3,18.52-4.71,22.47-11.39a112.64,112.64,0,0,0,6-12.11c3.47-8.39,5-16.91,8.22-40.57a24.18,24.18,0,0,0-2.88-7.23c-1.46-2.67-3.81-4.33-7-3.34-2.45.75-3.73,4.08-3.6,7.54.17,4.52.83,13.66-3.13,18.14-1.93,2.18-8.72,3.06-10.9,1.09-4.46-4-8-7.94-5-13.48.72-1.32,1.76-2.49,2.39-3.84,1.11-2.41.57-4.79-2.5-6.89s-6.31-2-8.72.62c-7,7.64-5.88,21.7,3.82,29.77a27.14,27.14,0,0,0,14.48,5.85c4.66.58,5.23,1.26,4.78,5.74-1,10.05-7.73,16.66-14.1,17.65-3.74.58-5.57-.45-7.25-3.86-1-1.94-2-3.83-3-5.73C831.86,99.77,829.86,109.34,834.93,113.57Zm-493.63-78-7,2.83c-.13-1.37-.56-2.44-.27-3.26A128.54,128.54,0,0,1,339,22.2c3.24-6.84,2.05-12.83-3.63-16.06-4-2.29-7.11-1.09-8.32,3.35-1.35,4.94-2.4,10-3.91,14.86-1.67,5.39-3.72,10.67-5.59,16-2.91,8.29-6,16.51-8.66,24.88-2.54,8,2.42,20.12,13.92,17.9,7.11-1.38,14-4,20.82-6.67,5.43-2.69,8.93-9.9,8.93-9.9C356.31,42.26,351,39.12,341.31,35.57ZM327.72,67.14c0-6.84,4.9-8.76,7.09-12.35.44-.72,2.65-.37,5.1-.63C337.76,60.78,334,64.16,327.72,67.14Zm69.15.9c-1.56-.1-3.3-.6-4.84-.23a54.91,54.91,0,0,0-7.65,2.77,9.87,9.87,0,0,1-8.4-.21c4.36-2.38,7.87-4.46,11.53-6.25,6.15-3,7.85-8,7.17-14.42-.66-6.23-7.22-12.7-13.43-13-8.77-.42-19.38,5.73-21.76,14.26-1.32,4.74-3.35,14.48-3.32,19.39,0,6.05,4.76,9.76,10.21,11.79,6.73,2.51,13.43,3.69,20.67,1C394.45,80.45,397.36,76.95,396.87,68Zm-25.58-8.93,1.78-3.54a10.73,10.73,0,0,1,1.13-1.91,5.48,5.48,0,0,1,5.27-1.91.39.39,0,0,1,.15.05.41.41,0,0,1,.12.31,4.66,4.66,0,0,1-.54,3.32,4.36,4.36,0,0,1-1.54,1.1q-1.16.58-2.37,1.09Zm134.46,6.71c-1.7.62-3.17,1.9-4.89,2.44a84.31,84.31,0,0,1-10.5,2.67c-1.79.32-3.73-.22-3.89-2.8,4.13-1.71,8.17-2.81,11.6-4.93,8.7-5.36,12.34-11.2,11-20.48-.7-5-7.22-11.09-12.11-11-5.3.05-10.11,1.63-13.69,6S475.61,46.35,472,50.91a10.77,10.77,0,0,0-1.82,5.48,26.3,26.3,0,0,0,.48,7c.93,5.07,1.5,10.62,5.79,14a30.67,30.67,0,0,0,16,6.43C503,84.82,508.56,78,510.1,69.36,510.68,66.08,509,64.65,505.75,65.82Zm-20.91-8.29a.27.27,0,0,1,0-.19c.3-1.64-.21-4.13,1.08-5.42a11,11,0,0,1,2.47-2.32,7.4,7.4,0,0,1,2.27-1.29,2.46,2.46,0,0,1,3,3.67,6.91,6.91,0,0,1-2.52,2.49,31.74,31.74,0,0,1-5.91,3.09C485.07,57.6,484.91,57.63,484.84,57.52Z"/></g></g></svg>