<svg xmlns="http://www.w3.org/2000/svg" viewBox="0 0 753.84 186.96"><title>2TheVerbLife</title><g id="Layer_2" data-name="Layer 2"><g id="Layer_1-2" data-name="Layer 1"><path d="M28.67,140c-1.35-3.21-3.24-2.71-5.25-2-4.93,1.74-9.89,2.53-15.15,1.32S-.61,132,1.39,127a4.66,4.66,0,0,1,4.76-3c2.5,0,5-.09,7.49.12,4.23.35,7.79-1.62,11.36-3.3,1-.45,1.78-2.41,1.68-3.61-.48-6.29-1.28-12.55-1.94-18.83-.51-4.84,2.6-6.88,7.13-5.26,5.27,1.89,7.71,5.1,7.49,10.83-.15,3.74.73,7.52,1.21,11.84,1.43,0,2.76.31,3.88-.05q7.11-2.31,14.1-5c3.8-1.44,4-2.54,3.73-6.83-.36-6.44-.38-12.92-.16-19.38.12-3.59,2.34-4.8,5.92-3.94,5.26,1.26,7.82,4.42,8,10,.08,2.83-.1,5.67.07,8.49.22,3.62,1.53,4.46,4.84,3.18,6.34-2.44,12.59-5.17,19-7.38a31.8,31.8,0,0,1,9.3-1.49A5.71,5.71,0,0,1,115,97.47a7,7,0,0,1-2.73,7.51,58.34,58.34,0,0,1-9.27,4.81c-6.78,2.71-13.68,5.09-20.51,7.66-3.63,1.37-4.31,2.69-3.76,6.88,2,1.49,4.06.57,6.12,0,4.12-1.24,8.2-2.64,12.38-3.59a20.23,20.23,0,0,1,6.94-.18c2.92.38,5.51,1.8,6.46,4.81s-.73,5.27-2.55,7.18a10.88,10.88,0,0,1-4.7,2.62c-6.06,1.79-12.19,3.35-18.29,5-4.18,1.12-5.62,2.18-5.56,6.47A206.93,206.93,0,0,0,81,167.9c.28,2.38.66,4.44-.52,6.7-2.81,5.42-6.31,6.07-10.38,1.54-2.77-3.09-3.74-7-3.95-11.06-.29-5.78-.69-11.55-1-16.87-1-.58-1.3-1-1.51-.89-5.72,1.67-11.44,3.32-17.12,5.12-2.9.92-4,3.21-4.22,6.15-.33,5.64-.92,11.27-1.05,16.92a18.73,18.73,0,0,1-3.13,9.32c-1.36,2.28-3.12,2.71-5.47,1.45-4.41-2.38-6.06-5.61-5.32-10.77.57-3.95,1.21-7.89,1.68-11.85a27.28,27.28,0,0,0-.3-4.51l-12,5.63a7.92,7.92,0,0,0-.85.52c-7.88,5-11.42,3.13-15.42-6.08-1.58-3.65,1-7.31,5.13-8.87q9.55-3.59,19-7.49A22.14,22.14,0,0,0,28.67,140Zm13.26-3c7.27-2.21,13.86-4.21,20.46-6.24a2.39,2.39,0,0,0,1.29-.69c.49-.77,1.19-1.76,1-2.48a3.19,3.19,0,0,0-2-1.88,5.06,5.06,0,0,0-2.87.29c-5.16,1.73-10.3,3.52-15.43,5.33C42.21,132.1,41.75,133.88,41.94,137Zm649.6-84.36c4.58-3.11,8.28-5.82,12.18-8.23,7.33-4.53,18.53-2.71,25.57,3.43,3.27,2.85,6.13,6,7.67,10.28,2.45,6.77.27,12.95-6.4,15.74-10.21,4.27-20.72,6-32.3,1.52.46,1.5.45,2.81,1.07,3.27,2.49,1.87,5,4.31,7.82,5,10.47,2.67,21.08,2.87,31.45-.75,1.78-.62,3.31-2.11,4.81-3.37,1.14-1,2-2.21,3.07-3.27a4.9,4.9,0,0,1,1.26-.69c5.92,2.69,7.42,7.29,5,12.85-2.29,5.2-6.49,7.55-11.47,8.64-13.35,2.91-26.62,2.73-39.77-1.57a25.76,25.76,0,0,1-17.91-26.33,17.53,17.53,0,0,0-.24-2.49l-15,.75c-.36,4.74,1.72,8.47,2.61,12.43,1.79,7.89,4.62,15.73,1.49,23.95-1.15,3-2.31,6-5.73,7.06a8.37,8.37,0,0,1-8.73-2.31c-2.68-2.71-4.62-5.9-3.69-9.82.32-1.34,1.94-2.49,3.19-3.44.87-.65,2.11-.81,3.95-1.45-.52-3.25-.77-6.5-1.59-9.61-1-3.85-2.48-7.58-3.8-11.35-1-2.78-2.72-4-5.78-3-2.36.77-4.87,1.08-7.22,1.87-4.4,1.47-8.8,0-11.65-4.11s-3.06-9.29-.21-12.52a5.7,5.7,0,0,1,3.74-1.86,88.6,88.6,0,0,1,9.9.77c1.78.19,3.55.58,6.08,1,0-2.25.31-4,0-5.67-2.45-11.16-1.57-22.18,1.47-33.05a25.55,25.55,0,0,1,9.51-14.27,8.85,8.85,0,0,1,8-1.7,25.73,25.73,0,0,1,15.41,11.92c1.22,2.15,1.11,5.15,1.2,7.78a3.18,3.18,0,0,1-1.94,2.44,6,6,0,0,1-4-1c-2-1.46-3.47-3.59-5.48-5-3.37-2.39-5.75-1.73-7.7,2a45.6,45.6,0,0,0-4.09,31.93c.73,3.32,1.58,3.78,4.89,3.13,4.06-.79,8.09-1.8,12.18-2.29a30.77,30.77,0,0,1,7.41.43A23.9,23.9,0,0,1,691.54,52.61Zm12.63,9c1.24,3.16,3.89,2.76,6,2.36,4.9-.94,10.82.4,14-5.26C719,52.91,711.51,54,704.17,61.61ZM500.24,75.92c1-1.4,1.95-2.84,3-4.18,3.27-4.14,6.3-8.52,10-12.28,4.45-4.56,10.55-3.78,14.6,1.34a11.85,11.85,0,0,1,2.13,3.36c2.59,7.79,4.47,15.76,2.24,23.92A71.62,71.62,0,0,1,527.1,101c-1.59,3.2-4.61,4.8-8.09,6.11a90.23,90.23,0,0,1-19.75,4.82c-3.44.47-6.56.5-9.27-2.16-3.19-3.12-3.54-4.65-2.05-8.87.59-1.67,1.36-3.69.92-5.23-2.78-9.88-1.88-20.08-2.9-30.1-1.28-12.56-2.44-25.13-3.64-37.7a28.4,28.4,0,0,1-.29-3.47c.08-2.69.12-5.48,3.24-6.67,2.35-.9,7.18.4,8.46,2.85a26.32,26.32,0,0,1,3.16,9.29c.93,9.76,1.42,19.56,1.88,29.35.2,4.43-.13,8.89-.13,13.33a16.66,16.66,0,0,0,.57,3.07Zm6,18.49c2.89,1.81,5,1.29,8.56-1.92,4.32-3.9,5.75-11.25,2.88-17.44Zm-286.93-.56c.48-11.95.91-23.9,1.72-35.83.3-4.35-.23-7.91-4.07-10.45-4.61-3-9.18-1.07-9.76,4.38-.33,3.14-.39,6.32-.46,9.48-.22,9.81-1,19.67-.41,29.43a221.27,221.27,0,0,1-.85,39.8c-.58,4.87,1.83,8.31,4.81,11.51.62.67,2.19.82,3.24.66a8.21,8.21,0,0,0,6.74-8.06c.06-1.81-.11-3.77.5-5.41,2.86-7.61,5.7-15.25,9.1-22.64,1.43-3.12,2.86-6.71,6.51-8.54,3.47,3.52,4.1,8.09,5.85,12.16,2.21,5.13,2.35,10.28,1.48,15.65a28,28,0,0,0-.45,6.94c.3,3.31,4.45,6.66,7.75,6.68,2.62,0,4.13-1.66,5.24-5.73,1.73-6.38,2.37-12.75.26-19.19-1-3.15-1.5-6.52-2.79-9.54-2.88-6.71-6-13.31-9.28-19.85A9.53,9.53,0,0,0,241,81.78c-3.64-2.26-8.34-3.58-11.15,1.57-1.9,3.48-4.1,6.8-6.18,10.18-.71,1.16-1.47,2.29-2.82,4.38C220,95.8,219.25,94.81,219.29,93.85ZM148.74,79.51c.12,4.13.15,8.26,0,12.39q-.75,20.2-1.66,40.39c-.24,5.65-.51,11.3-.91,16.94-.25,3.49,1.38,6.19,3.55,8.5,3.58,3.82,8.26,2.76,9.41-2.28.72-3.17.47-6.58.55-9.89,0-1.65-.36-3.32-.26-5,.49-8.63,1.26-17.26,1.58-25.9.47-12.64.62-25.29,1-37.93a42.14,42.14,0,0,1,.54-4.56c6.56-2.31,12.39-4.27,18.14-6.43a5.18,5.18,0,0,1,5.13.58,6,6,0,0,0,4,1,22.39,22.39,0,0,0,6.45-2.58c3-1.76,5-4.28,4.94-8.09s-2.15-5.87-5.06-7.4a31.36,31.36,0,0,0-4.94-1.82c-4.35,1.82-7.65,3.35-11.06,4.58-2.31.84-4.8,1.19-7.16,1.91-14.6,4.49-29.17,9.13-44.39,11.11-7.71,1-8.34,1.91-5.94,9.12,2.22,6.69,4.11,7.68,10.72,5.74,4.45-1.31,8.92-2.53,14.06-4C148,77.44,148.71,78.46,148.74,79.51ZM359,101.13a12.42,12.42,0,0,1-.73-1.28c-4.57-10.62-6.9-21.83-8.92-33.14-1.34-7.52-2.67-15-4.19-22.52-.63-3.07-4.93-5.94-7.92-5.69-3.17.26-5.17,2.55-5.14,6.74a57.9,57.9,0,0,0,1.14,9.85c1.6,8.79,3,17.65,5.17,26.31,1.69,6.73,4.39,13.22,6.72,19.78,2.91,8.19,6.54,16,12.08,22.81,2.06,2.55,4.25,4.46,7.52,3.62,3.45-.89,5-3.71,5.33-7.12.22-2,0-4,.5-5.95q4.06-16.1,8.38-32.14c2.64-9.82,4.78-19.75,4.83-29.92,0-3.67-1.36-7.46-2.68-11-1.07-2.85-5.06-4.39-7.46-3.56-2.74.94-3.79,3.15-3.37,6.93a64.48,64.48,0,0,1,.62,6.93c0,8.9-2.56,17.37-4.48,25.95-1.49,6.64-3,13.27-4.58,19.88a19.13,19.13,0,0,1-1.54,3.39ZM566.8,80.64c1.12-4.32,2.44-8.59,3.48-12.92,1.58-6.62,3.11-13.26,4.44-19.94,1.55-7.79,3.16-15.57,3.3-23.6.09-5.2-1.6-8.9-6-11.65-3.35-2.11-7.16-1.1-8.38,2.75-.54,1.7-.4,3.61-.59,5.42-.84,8.42-1.25,16.92-2.65,25.24s-3.73,16.21-5.7,24.29c-.95,3.87-1.78,7.79-3.08,11.54-2.06,5.95-4.52,11.76-6.69,17.67a4.86,4.86,0,0,0-.2,3.36c1.56,3.23,2.87,6.54,7.16,7.62s7.21-.21,9.66-3.3c4-5,9.38-7.29,15.31-8.67,2.24-.52,4.67-1.23,6.83-.82a107.22,107.22,0,0,1,12.42,3.53c4.45,1.41,7.46.16,8.68-3.77,1.61-5.17.3-7.85-4.36-9.3a127.8,127.8,0,0,1-12.74-4.34A17.26,17.26,0,0,0,575.55,83c-2.81.81-5.71,1.33-9.37,2.16A44.14,44.14,0,0,1,566.8,80.64ZM304.12,132.57a9.24,9.24,0,0,0,5.94-8,39.08,39.08,0,0,0-.22-9c-.43-3.36-2.46-5.33-4.94-5.41-3.29-.11-4.17,2.32-4.77,4.8-1.07,4.42-3.75,6.86-8.26,7.44-2.14.28-4.24.9-6.37,1.2-3.49.5-10.37-2.9-12-5.83q-2.78-4.91,2.76-5.23a14.17,14.17,0,0,0,2.95-.18c8.45-2.36,14.14-8.43,19.6-14.77a4.54,4.54,0,0,0,.83-1.8c1.61-6.21-1.11-14.63-7.34-18.12-7.18-4-11.87-3.64-17.81,2.45a57.46,57.46,0,0,0-12.68,18.95c-4,10-3.72,19.71,3.53,28.51,5.77,7,13.54,8.5,21.95,8.55A43,43,0,0,0,304.12,132.57Zm94.41-31.92A60.85,60.85,0,0,0,414,89c5.44-6,5.77-16.68-.09-21.25-6.44-5-14.05-6.61-21,.6a44.55,44.55,0,0,0-10.47,19c-2.47,8.52-3.39,17,3.49,24.29,1.7,1.79,3.13,4.5,5.19,5.15,5.6,1.76,11.06,3.89,17.47,2.62,9.14-1.81,15.46-7.1,15.85-17.45A6.1,6.1,0,0,0,422,97.44c-.9-.61-3.15,0-4.36.75-2.23,1.41-4,3.61-6.21,5-5.14,3.16-9.25,4.9-15.29-.91C397,101.69,397.73,101.1,398.53,100.65Zm39.42-19.59q3.63,13.95,7.4,27.86a13.69,13.69,0,0,0,6.82,8.82,4.64,4.64,0,0,0,5.94-.89,8,8,0,0,0,1.85-4.71c.09-1.56-.81-3.18-1.24-4.78-1.17-4.33-2.73-8.6-3.41-13-1.06-6.85-1.43-13.86,5.4-18.42a94,94,0,0,1,9.16-4.85c3.22-1.66,6.7-3,9.6-5.06s3.26-6.33,1.59-9c-1.51-2.44-3.62-3.15-7.45-2-4.92,1.48-9.82,3.08-14.63,4.92-4.3,1.64-8.81,2.94-12,6.78-.8,1-2.64,1.23-4.06,1.48-4.64.82-5.85,2.17-5.86,8C437.22,77.15,437.45,79.14,437.95,81.06ZM625.86,78c0-4.14.06-8.29,0-12.43a12.05,12.05,0,0,0-4.19-9.26c-2-1.78-4.28-2.54-6.89-1.48s-3.38,3.16-3.42,5.61c-.18,10.27-.82,20.57,2,30.65,1,3.5,4.78,6.35,8.19,6,3-.32,4.41-2.17,4.6-6.62.18-4.15,0-8.31,0-12.46Zm-2.7-38.91a8,8,0,0,0,6.95-8.27,3.56,3.56,0,0,0-2.81-3.61c-3.66-1-7.23-2.37-10.94-3-4.76-.83-8.21-.46-7.2,6.45,1,6.6,3.1,8.28,10.51,8.46C620.83,39.09,622,39.17,623.16,39.08Z"/></g></g></svg>