<svg xmlns="http://www.w3.org/2000/svg" viewBox="0 0 460.83 167.29"><title>try_Verb</title>
	<defs><style>path {fill: #1d1d20}</style></defs>
	<path d="M44.05,86.36c2.4-.78,4.83-1.51,7.2-2.35s4.47-1.14,6.34,1.29a4.3,4.3,0,0,1-.19,5.92c-1.65,1.89-3.4,3.91-5.6,5a77.3,77.3,0,0,1-11.74,4.51c-2.32.73-4.13,1.84-5.05,4-1.44,3.4-2.88,6.81-4.08,10.31-3.85,11.29-7.54,22.65-11.4,33.93-1.1,3.22-2.72,4-5.53,3.27-3.21-.84-5.49-3.13-5.24-6.11a42.58,42.58,0,0,1,2-9C13.26,129,16,120.9,18.58,112.74a7,7,0,0,0-.17-2.42c-3.12-1.62-5.32.39-7.79.75C4.64,112,.3,108.86,0,103c-.09-1.84.78-3.64,1.07-4.86,7-1.68,13.15-3.1,19.25-4.69a5.67,5.67,0,0,0,3.12-2,33.9,33.9,0,0,0,4-7.07c2.12-5.56,3.87-11.28,5.83-16.9,1.51-4.32,4.25-5.79,7.76-4.29,5,2.13,7.42,6.25,6,10.4-.85,2.43-2.2,4.65-3.11,7.05a29.91,29.91,0,0,0-1,4.53ZM436,26.5c3.09,5.3,6.14,10.62,9.22,15.93,1.49,2.57,3.43,5,4.41,7.74,1.27,3.57,3.24,4.54,7.51,3.74,3-.57,4.15-2.76,3.46-6.65a12.47,12.47,0,0,0-2.1-5.47c-5.09-6.36-10.08-12.73-13.28-20.34-1.79-4.25-4.42-8.18-5.85-12.52A12.59,12.59,0,0,0,432.48,1c-4.92-2.41-10.22-.26-12.88,4.51a33.78,33.78,0,0,1-7.48,9.05c-8.07,6.88-16.56,13.26-24.71,20-3.12,2.59-3.66,6.17-1.92,8.39,1.55,2,4,2.34,7.67-.08,7.19-4.78,14.06-10,21.11-15,1.49-1.06,3.15-1.89,5.57-3.33-.13,2.31.09,3.5-.29,4.46-6.59,25-33.74,50.08-47.2,57.84-4.65,2.68,1.14,12.58,9.23,7a243,243,0,0,0,28-22.4c7.45-6.91,18.86-38.64,21.75-46.25a29.56,29.56,0,0,1,1.84-3.14C434.5,24.14,435.33,25.29,436,26.5ZM318.7,91.59c.47-2.81,1.32-5.6,1.66-8.41.48-4,.43-8,1-11.95,1-7.61,2.28-15.21,3.47-22.82a9.45,9.45,0,0,0-2.8-8.91c-3.14-2.94-7.74-1.4-9,3a14.88,14.88,0,0,0-.24,2.49c-1.07,10.32-2,20.64-3.26,31-1.44,12.14-3.33,24.27-1.83,36.3a15,15,0,0,1-.53,3.78,11.1,11.1,0,0,1-1.91.15c-4.79-.65-6.88,1.32-6.39,6.07a8.94,8.94,0,0,0,9.41,8,104.22,104.22,0,0,0,11.49-1.35c19.58-3.19,30.31-20.35,32-36.88.64-6.42.17-13.1-6.74-16.4-2.29-1.09-4.25-1.21-6.53.39-6.16,4.32-11.82,9.11-15.82,15.61a44.39,44.39,0,0,1-3.69,4.33A24.62,24.62,0,0,1,318.7,91.59Zm2.74,24.34c3.16-8.86,11.56-20.87,17.74-25.05C339.35,103.06,329.38,116.86,321.43,115.94Zm-132.82.82A111.52,111.52,0,0,1,187.38,103c.11-13.57.73-27.19.71-40.75a15.27,15.27,0,0,0-3-8.35c-.9-1.26-3.78-1.55-5.75-1.34-2.32.26-3.12,2.55-3.26,4.66-.15,2.32-.1,4.63-.07,6.94,0,3.47.28,6.93.2,10.41-.34,15.4-1.73,30.86,1.89,45.83a23.52,23.52,0,0,0,6.73,11.83c3,2.87,10.21,1.89,12.57-1.69,4.72-7.2,9.55-14.39,13.63-21.92,8.84-16.32,13.23-34,18.81-51.28,1.47-4.56.12-8.52-2.86-11.8-1.28-1.41-2.79-2.17-4.83-1.11s-3.31,2.28-3.12,4.77a24.73,24.73,0,0,1-.48,6,99,99,0,0,1-7.63,25.27c-4.27,9.14-8,18.48-12.49,27.54-2,4-5.05,7.56-8,11.86C189.5,118.31,188.72,117.6,188.62,116.75Zm45.21-.2c4.88,1.86,8.7-.3,12.13-4,1.75-1.92,3.6-3.77,5.23-5.78,3.9-4.8,5.71-10.09,4.64-16-.6-3.31-1.78-6.16-4.87-7.87-5.47-3-11.41-2.39-16.5,2.5A105.28,105.28,0,0,0,226,95.19c-4.52,5.56-6.62,11.85-7.5,18.69-1,8,7.82,19.13,17.69,17.23A63.93,63.93,0,0,0,248.7,127c4.3-1.81,5.18-5.81,5.35-9.75.11-2.56-1.6-3.32-4.05-2-.91.48-1.68,1.24-2.57,1.75-4,2.28-8,3.93-12.54,3.12-1.67-.3-3.27-.57-2.87-3.3C232.88,116.65,233.45,116.41,233.83,116.55Zm9.94-23.22c2,3,.24,5.14-1.56,7.15s-3.39,4.61-7.09,2.38C237,98.52,240.1,96,243.77,93.33Zm20.53,4.31a82,82,0,0,0-3.11,9.58c-1.07,4.72-3,9.52-1.36,14.23,1.73,5,5.49,8.19,10.11,10.4,3.43,1.64,7,.33,9.17-3.13,2.64-4.13,4.18-8.2,1.52-12.62-1.13-1.88-1.56-4.23-2.21-6.4-1.22-4-.67-5.5,3.16-8s7.64-4.75,11.36-7.28a34,34,0,0,0,5.56-4.63c2.42-2.56,2.77-6.05,1.19-8.22-1.29-1.76-4.57-1.81-7.81.11-5.36,3.17-10.8,6.23-15.92,9.78-2.91,2-5.5,3.41-9.3,1.6A44.56,44.56,0,0,0,264.3,97.64ZM49.74,103.89C52,98.43,53.42,97.56,57,98.29c1.1.23,2.5.57,3.44-.07,3.74-2.55,7.42-2.31,11.09-2.46,4.1-.16,8.17-.08,12.22.13,3.15.16,4.35,1.51,4.46,4.27.12,3-1.83,6.9-4.65,7.91s-5.82,1.11-8.73,1.62a66,66,0,0,0-8.34,1.57c-6.59,2-9.07,8.71-11,15.45C54.24,131,53.66,135.54,52.8,140c-.32,1.64-.32,3.44-1,4.87a9.33,9.33,0,0,1-3.15,3.8,3,3,0,0,1-4.53-1.09c-1.75-3-2.12-6.51-1.35-10.43q2.79-14.2,5.7-28.4C48.87,106.75,49.5,104.82,49.74,103.89Zm44.57,40.7c1,1.9,2.06,3.79,3,5.73,1.68,3.4,3.51,4.44,7.25,3.86,6.38-1,13.08-7.6,14.1-17.65.46-4.47-.12-5.16-4.78-5.74a27.14,27.14,0,0,1-14.48-5.85c-9.7-8.06-10.81-22.13-3.82-29.77,2.41-2.63,5.68-2.7,8.72-.62s3.61,4.48,2.5,6.89c-.63,1.36-1.67,2.52-2.39,3.84-3,5.54.5,9.45,5,13.48,2.18,2,9,1.1,10.9-1.09,4-4.48,3.3-13.63,3.13-18.14-.13-3.46,1.15-6.79,3.6-7.54,3.23-1,5.58.67,7,3.34a24.18,24.18,0,0,1,2.88,7.23c-3.23,23.66-4.76,32.18-8.22,40.57a112.64,112.64,0,0,1-6,12.11c-3.95,6.68-11.66,14.36-22.47,11.39a25.76,25.76,0,0,1-9.44-4.8C85.68,157.6,87.68,148,94.31,144.58Z"/>
</svg>